<svg width="128" height="128" viewBox="0 0 128 128" fill="none" xmlns="http://www.w3.org/2000/svg">
<rect x="0.5" y="0.5" width="127" height="127" fill="#74E8BE" stroke="black"/>
<path d="M44.6461 27.9C44.6461 25.86 45.3794 24.1667 46.8461 22.82C48.3261 21.46 50.0661 20.78 52.0661 20.78C53.2661 20.78 54.3794 21.1933 55.4061 22.02C55.5128 22.1133 55.5661 22.2333 55.5661 22.38C55.5661 22.5933 55.4794 22.7933 55.3061 22.98C55.1328 23.1533 54.9528 23.24 54.7661 23.24C54.6328 23.24 54.5194 23.1933 54.4261 23.1C53.7861 22.54 52.9861 22.26 52.0261 22.26C50.2794 22.26 48.8594 22.8267 47.7661 23.96C46.6861 25.08 46.1461 26.3867 46.1461 27.88C46.1461 29.4133 46.6794 30.7667 47.7461 31.94C48.8128 33.1133 50.2461 33.7 52.0461 33.7C53.2194 33.7 54.1728 33.28 54.9061 32.44C55.0528 32.2933 55.1794 32.22 55.2861 32.22C55.4861 32.22 55.6794 32.32 55.8661 32.52C56.0528 32.72 56.1461 32.9133 56.1461 33.1C56.1461 33.22 56.0994 33.3267 56.0061 33.42C54.9794 34.5933 53.6928 35.18 52.1461 35.18C50.6128 35.18 49.2661 34.8333 48.1061 34.14C46.9461 33.4333 46.0794 32.54 45.5061 31.46C44.9328 30.3667 44.6461 29.18 44.6461 27.9ZM56.7391 21.72C56.7391 21.52 56.7857 21.3533 56.8791 21.22C56.9724 21.0733 57.1057 21 57.2791 21H67.1591C67.3324 21 67.4657 21.0733 67.5591 21.22C67.6657 21.3667 67.7191 21.54 67.7191 21.74C67.7191 22.2333 67.5324 22.48 67.1591 22.48H62.8391V34.44C62.8391 34.6133 62.7657 34.7533 62.6191 34.86C62.4724 34.9533 62.2991 35 62.0991 35C61.6057 35 61.3591 34.8133 61.3591 34.44V22.48H57.2791C56.9191 22.48 56.7391 22.2267 56.7391 21.72ZM67.3763 34.26C67.3763 34.2067 67.3896 34.14 67.4163 34.06L68.7763 30.46H67.9563C67.5963 30.46 67.4163 30.2067 67.4163 29.7C67.4163 29.5 67.4629 29.3333 67.5563 29.2C67.6496 29.0533 67.7829 28.98 67.9563 28.98H69.3363L72.1163 21.7C72.2229 21.4867 72.3696 21.32 72.5563 21.2C72.7429 21.0667 72.9096 21 73.0563 21C73.2029 21 73.3696 21.0667 73.5563 21.2C73.7429 21.3333 73.8829 21.5 73.9763 21.7L76.7562 28.98H78.0563C78.2296 28.98 78.3629 29.0533 78.4563 29.2C78.5629 29.3467 78.6163 29.52 78.6163 29.72C78.6163 30.2133 78.4296 30.46 78.0563 30.46H77.3363L78.7163 34.06C78.7429 34.14 78.7563 34.2067 78.7563 34.26C78.7563 34.46 78.6563 34.6333 78.4563 34.78C78.2563 34.9267 78.0563 35 77.8563 35C77.6429 35 77.4829 34.9 77.3763 34.7L75.7563 30.46H70.3763L68.7563 34.7C68.6496 34.9 68.4896 35 68.2763 35C68.0762 35 67.8763 34.9267 67.6763 34.78C67.4763 34.6333 67.3763 34.46 67.3763 34.26ZM70.9363 28.98H75.1763L73.0563 23.4L70.9363 28.98ZM35.0791 58.44V45.54C35.0791 45.18 35.3325 45 35.8391 45C36.0391 45 36.2058 45.0467 36.3391 45.14C36.4858 45.2333 36.5591 45.3667 36.5591 45.54V58.44C36.5591 58.6133 36.4858 58.7533 36.3391 58.86C36.1925 58.9533 36.0191 59 35.8191 59C35.3258 59 35.0791 58.8133 35.0791 58.44ZM39.1937 58.44V49.58C39.1937 49.22 39.447 49.04 39.9537 49.04C40.1537 49.04 40.3203 49.0867 40.4537 49.18C40.6003 49.2733 40.6737 49.4067 40.6737 49.58V50.64C41.1003 50.1333 41.6203 49.7 42.2337 49.34C42.847 48.98 43.4537 48.8 44.0537 48.8C45.6937 48.8 46.8603 49.3933 47.5537 50.58C47.967 50.0067 48.4937 49.5667 49.1337 49.26C49.787 48.9533 50.447 48.8 51.1137 48.8C52.3537 48.8 53.3337 49.1533 54.0537 49.86C54.7737 50.5667 55.1337 51.5467 55.1337 52.8C55.1337 52.92 55.127 53.58 55.1137 54.78C55.1137 55.9667 55.1137 57.2133 55.1137 58.52C55.1137 58.6933 55.0403 58.8333 54.8937 58.94C54.747 59.0333 54.5803 59.08 54.3937 59.08C53.9003 59.08 53.6537 58.8933 53.6537 58.52V52.98C53.6537 51.18 52.8337 50.28 51.1937 50.28C50.9537 50.28 50.707 50.3067 50.4537 50.36C50.2137 50.4 49.947 50.4867 49.6537 50.62C49.3737 50.7533 49.1203 50.92 48.8937 51.12C48.667 51.3067 48.4803 51.5667 48.3337 51.9C48.187 52.2333 48.1137 52.6067 48.1137 53.02C48.1137 53.54 48.107 54.2 48.0937 55C48.0937 55.8 48.0937 56.9733 48.0937 58.52C48.0937 58.6933 48.0137 58.8333 47.8537 58.94C47.707 59.0333 47.5337 59.08 47.3337 59.08C46.867 59.08 46.6337 58.8933 46.6337 58.52V52.98C46.6337 52.0067 46.4003 51.3133 45.9337 50.9C45.467 50.4867 44.867 50.28 44.1337 50.28C43.427 50.28 42.7403 50.5467 42.0737 51.08C41.4203 51.6133 40.9537 52.2333 40.6737 52.94V58.44C40.6737 58.6133 40.6003 58.7533 40.4537 58.86C40.307 58.9533 40.1337 59 39.9337 59C39.4403 59 39.1937 58.8133 39.1937 58.44ZM56.9768 55.36C56.9768 53.5733 57.6768 52.0333 59.0768 50.74C60.4768 49.4467 62.0635 48.8 63.8368 48.8C65.0501 48.8 66.0835 49.26 66.9368 50.18C67.7901 51.1 68.2168 52.1467 68.2168 53.32L68.1968 58.56C68.1968 58.7333 68.1101 58.8733 67.9368 58.98C67.7768 59.0733 67.5968 59.12 67.3968 59.12C66.9568 59.12 66.7368 58.9333 66.7368 58.56V55.18C65.6568 56.58 64.6235 57.5933 63.6368 58.22C62.6635 58.8467 61.6568 59.16 60.6168 59.16C59.6568 59.16 58.8101 58.7733 58.0768 58C57.3435 57.2133 56.9768 56.3333 56.9768 55.36ZM58.4168 55.4C58.4168 56.16 58.6835 56.74 59.2168 57.14C59.7501 57.5267 60.3168 57.72 60.9168 57.72C61.6101 57.72 62.4035 57.38 63.2968 56.7C64.1901 56.0067 64.9301 55.24 65.5168 54.4C66.1168 53.5467 66.4168 52.88 66.4168 52.4C66.4168 52 66.2968 51.6467 66.0568 51.34C65.8301 51.02 65.5435 50.7867 65.1968 50.64C64.8635 50.4933 64.5568 50.3867 64.2768 50.32C63.9968 50.24 63.7635 50.2 63.5768 50.2C62.2701 50.2 61.0835 50.7267 60.0168 51.78C58.9501 52.82 58.4168 54.0267 58.4168 55.4ZM70.0237 55.36C70.0237 53.5733 70.7237 52.0333 72.1237 50.74C73.5237 49.4467 75.1103 48.8 76.8837 48.8C77.9903 48.8 78.957 49.1933 79.7837 49.98V49.52C79.7837 49.16 80.037 48.98 80.5437 48.98C80.7437 48.98 80.9103 49.0267 81.0437 49.12C81.1903 49.2133 81.2637 49.3467 81.2637 49.52V59.1C81.2637 60.66 80.757 61.88 79.7437 62.76C78.7303 63.6533 77.5503 64.1 76.2037 64.1C75.137 64.1 74.2437 63.9133 73.5237 63.54C72.8037 63.1667 72.437 62.5467 72.4237 61.68C72.4237 61.4667 72.4903 61.3 72.6237 61.18C72.757 61.0733 72.9237 61.02 73.1237 61.02C73.337 61.02 73.517 61.08 73.6637 61.2C73.8237 61.32 73.9037 61.4733 73.9037 61.66C73.9037 61.8867 73.9637 62.0667 74.0837 62.2C74.217 62.3467 74.4237 62.4467 74.7037 62.5C74.9837 62.5533 75.2237 62.5867 75.4237 62.6C75.637 62.6133 75.9303 62.62 76.3037 62.62C77.2503 62.62 78.0637 62.3333 78.7437 61.76C79.437 61.1867 79.7837 60.3467 79.7837 59.24V55.18C78.7037 56.58 77.6703 57.5933 76.6837 58.22C75.7103 58.8467 74.7037 59.16 73.6637 59.16C72.7037 59.16 71.857 58.7733 71.1237 58C70.3903 57.2133 70.0237 56.3333 70.0237 55.36ZM71.4637 55.4C71.4637 56.16 71.7303 56.74 72.2637 57.14C72.797 57.5267 73.3637 57.72 73.9637 57.72C74.657 57.72 75.4503 57.38 76.3437 56.7C77.237 56.0067 77.977 55.24 78.5637 54.4C79.1637 53.5467 79.4637 52.88 79.4637 52.4C79.4637 52 79.3437 51.6467 79.1037 51.34C78.877 51.02 78.5903 50.7867 78.2437 50.64C77.9103 50.4933 77.6037 50.3867 77.3237 50.32C77.0437 50.24 76.8103 50.2 76.6237 50.2C75.317 50.2 74.1303 50.7267 73.0637 51.78C71.997 52.82 71.4637 54.0267 71.4637 55.4ZM83.2268 53.72C83.2268 52.8667 83.4135 52.1067 83.7868 51.44C84.1601 50.7733 84.6535 50.2467 85.2668 49.86C85.8801 49.4733 86.5401 49.1867 87.2468 49C87.9535 48.8 88.6735 48.7 89.4068 48.7C90.7135 48.7 91.7268 48.9867 92.4468 49.56C93.1668 50.12 93.5268 50.8133 93.5268 51.64C93.5268 52.5333 93.1068 53.2933 92.2668 53.92C91.4268 54.5467 90.2335 54.86 88.6868 54.86C87.3001 54.86 85.9801 54.66 84.7268 54.26C84.8735 55.2467 85.3335 56.0733 86.1068 56.74C86.8801 57.4067 87.8335 57.74 88.9668 57.74C89.5668 57.74 90.1868 57.6467 90.8268 57.46C91.4801 57.2733 91.9935 57.0067 92.3668 56.66C92.4201 56.5533 92.5268 56.5 92.6868 56.5C92.8735 56.5 93.0735 56.5867 93.2868 56.76C93.5001 56.92 93.6068 57.0867 93.6068 57.26C93.2735 57.94 92.6201 58.44 91.6468 58.76C90.6868 59.0667 89.7535 59.22 88.8468 59.22C87.2068 59.22 85.8601 58.68 84.8068 57.6C83.7535 56.52 83.2268 55.2267 83.2268 53.72ZM84.8068 52.72C85.8068 53.16 87.0468 53.38 88.5268 53.38C89.6868 53.38 90.5668 53.2 91.1668 52.84C91.7668 52.4667 92.0668 52.0533 92.0668 51.6C92.0668 51.2 91.8135 50.8667 91.3068 50.6C90.8135 50.32 90.0735 50.18 89.0868 50.18C88.0201 50.18 87.1268 50.42 86.4068 50.9C85.7001 51.3667 85.1668 51.9733 84.8068 52.72ZM26.4834 76.04C26.4834 74 27.0501 72.3 28.1834 70.94C29.3301 69.58 30.6901 68.9 32.2634 68.9C33.8368 68.9 35.1634 69.6 36.2434 71C37.3368 72.3867 37.8834 74.0467 37.8834 75.98C37.8834 78.1133 37.3501 79.8333 36.2834 81.14C35.2301 82.4333 33.8901 83.0867 32.2634 83.1C30.6901 83.1 29.3301 82.44 28.1834 81.12C27.0501 79.8 26.4834 78.1067 26.4834 76.04ZM27.9634 76.06C27.9634 77.58 28.3834 78.8867 29.2234 79.98C30.0768 81.0733 31.0901 81.62 32.2634 81.62C33.4234 81.62 34.4034 81.0733 35.2034 79.98C36.0034 78.8733 36.4034 77.5533 36.4034 76.02C36.4034 74.5533 35.9968 73.2467 35.1834 72.1C34.3834 70.9533 33.4101 70.38 32.2634 70.38C31.0901 70.38 30.0768 70.96 29.2234 72.12C28.3834 73.28 27.9634 74.5933 27.9634 76.06ZM39.2828 73.74C39.2828 73.54 39.3828 73.3667 39.5828 73.22C39.7828 73.0733 39.9828 73 40.1828 73C40.3961 73 40.5561 73.1 40.6628 73.3L44.7628 80.6L48.8828 73.3C48.9895 73.1 49.1495 73 49.3628 73C49.5628 73 49.7628 73.0733 49.9628 73.22C50.1628 73.3667 50.2628 73.54 50.2628 73.74C50.2628 73.8333 50.2495 73.9 50.2228 73.94L45.5828 82.3C45.3561 82.7667 45.0828 83 44.7628 83C44.4561 83 44.1895 82.7667 43.9628 82.3L39.3228 73.94C39.2961 73.9 39.2828 73.8333 39.2828 73.74ZM51.2444 77.72C51.2444 76.8667 51.431 76.1067 51.8044 75.44C52.1777 74.7733 52.671 74.2467 53.2844 73.86C53.8977 73.4733 54.5577 73.1867 55.2644 73C55.971 72.8 56.691 72.7 57.4244 72.7C58.731 72.7 59.7444 72.9867 60.4644 73.56C61.1844 74.12 61.5444 74.8133 61.5444 75.64C61.5444 76.5333 61.1244 77.2933 60.2844 77.92C59.4444 78.5467 58.251 78.86 56.7044 78.86C55.3177 78.86 53.9977 78.66 52.7444 78.26C52.891 79.2467 53.351 80.0733 54.1244 80.74C54.8977 81.4067 55.851 81.74 56.9844 81.74C57.5844 81.74 58.2044 81.6467 58.8444 81.46C59.4977 81.2733 60.011 81.0067 60.3844 80.66C60.4377 80.5533 60.5444 80.5 60.7044 80.5C60.891 80.5 61.091 80.5867 61.3044 80.76C61.5177 80.92 61.6244 81.0867 61.6244 81.26C61.291 81.94 60.6377 82.44 59.6644 82.76C58.7044 83.0667 57.771 83.22 56.8644 83.22C55.2244 83.22 53.8777 82.68 52.8244 81.6C51.771 80.52 51.2444 79.2267 51.2444 77.72ZM52.8244 76.72C53.8244 77.16 55.0644 77.38 56.5444 77.38C57.7044 77.38 58.5844 77.2 59.1844 76.84C59.7844 76.4667 60.0844 76.0533 60.0844 75.6C60.0844 75.2 59.831 74.8667 59.3244 74.6C58.831 74.32 58.091 74.18 57.1044 74.18C56.0377 74.18 55.1444 74.42 54.4244 74.9C53.7177 75.3667 53.1844 75.9733 52.8244 76.72ZM63.5784 82.44V73.58C63.5784 73.22 63.8318 73.04 64.3384 73.04C64.5384 73.04 64.7051 73.0867 64.8384 73.18C64.9851 73.2733 65.0584 73.4067 65.0584 73.58V76.08C65.5651 74.9867 66.1251 74.16 66.7384 73.6C67.3651 73.04 68.1918 72.76 69.2184 72.76C69.9384 72.76 70.6651 72.8533 71.3984 73.04C71.7851 73.2267 71.9784 73.48 71.9784 73.8C71.9784 74.0267 71.9318 74.1867 71.8384 74.28C71.7451 74.3733 71.5918 74.4333 71.3784 74.46C70.6984 74.3 70.1451 74.22 69.7184 74.22C68.7318 74.22 67.8318 74.7067 67.0184 75.68C66.2051 76.6533 65.5518 77.92 65.0584 79.48V82.44C65.0584 82.6133 64.9851 82.7533 64.8384 82.86C64.6918 82.9533 64.5184 83 64.3184 83C63.8251 83 63.5784 82.8133 63.5784 82.44ZM73.3836 82.44V68.54C73.3836 68.18 73.6369 68 74.1436 68C74.3436 68 74.5103 68.0467 74.6436 68.14C74.7903 68.2333 74.8636 68.3667 74.8636 68.54V82.44C74.8636 82.6133 74.7903 82.7533 74.6436 82.86C74.4969 82.9533 74.3236 83 74.1236 83C73.6303 83 73.3836 82.8133 73.3836 82.44ZM76.8303 79.36C76.8303 77.5733 77.5303 76.0333 78.9303 74.74C80.3303 73.4467 81.917 72.8 83.6903 72.8C84.9036 72.8 85.937 73.26 86.7903 74.18C87.6436 75.1 88.0703 76.1467 88.0703 77.32L88.0503 82.56C88.0503 82.7333 87.9636 82.8733 87.7903 82.98C87.6303 83.0733 87.4503 83.12 87.2503 83.12C86.8103 83.12 86.5903 82.9333 86.5903 82.56V79.18C85.5103 80.58 84.477 81.5933 83.4903 82.22C82.517 82.8467 81.5103 83.16 80.4703 83.16C79.5103 83.16 78.6636 82.7733 77.9303 82C77.197 81.2133 76.8303 80.3333 76.8303 79.36ZM78.2703 79.4C78.2703 80.16 78.537 80.74 79.0703 81.14C79.6036 81.5267 80.1703 81.72 80.7703 81.72C81.4636 81.72 82.257 81.38 83.1503 80.7C84.0436 80.0067 84.7836 79.24 85.3703 78.4C85.9703 77.5467 86.2703 76.88 86.2703 76.4C86.2703 76 86.1503 75.6467 85.9103 75.34C85.6836 75.02 85.397 74.7867 85.0503 74.64C84.717 74.4933 84.4103 74.3867 84.1303 74.32C83.8503 74.24 83.617 74.2 83.4303 74.2C82.1236 74.2 80.937 74.7267 79.8703 75.78C78.8036 76.82 78.2703 78.0267 78.2703 79.4ZM90.1972 78.92V73.52C90.1972 73.3467 90.2639 73.2133 90.3972 73.12C90.5439 73.0133 90.7105 72.96 90.8972 72.96C91.3905 72.96 91.6372 73.1467 91.6372 73.52V78.74C91.6372 79.2333 91.7705 79.6733 92.0372 80.06C92.3039 80.4467 92.6372 80.74 93.0372 80.94C93.4505 81.14 93.8505 81.2933 94.2372 81.4C94.6372 81.4933 95.0039 81.54 95.3372 81.54C96.2839 81.54 97.1772 81.2467 98.0172 80.66C98.8572 80.0733 99.4505 79.2933 99.7972 78.32V73.52C99.7972 73.16 100.051 72.98 100.557 72.98C100.757 72.98 100.924 73.0267 101.057 73.12C101.204 73.2133 101.277 73.3467 101.277 73.52V83.1C101.277 83.8867 101.097 84.6067 100.737 85.26C100.391 85.9267 99.9372 86.46 99.3772 86.86C98.8172 87.26 98.2105 87.5667 97.5572 87.78C96.9039 87.9933 96.2572 88.1 95.6172 88.1C94.5239 88.1 93.4505 87.8467 92.3972 87.34C91.3572 86.8333 90.8305 86.1533 90.8172 85.3C90.8172 85.0867 90.8839 84.92 91.0172 84.8C91.1639 84.6933 91.3372 84.64 91.5372 84.64C91.7505 84.64 91.9372 84.7 92.0972 84.82C92.2572 84.94 92.3372 85.0933 92.3372 85.28C92.3372 85.7067 92.7172 86.0333 93.4772 86.26C94.2372 86.5 94.9839 86.62 95.7172 86.62C96.3172 86.62 96.9105 86.5067 97.4972 86.28C98.0972 86.0667 98.6305 85.6867 99.0972 85.14C99.5639 84.6067 99.7972 83.9733 99.7972 83.24V80.92C98.5839 82.3067 97.0372 83 95.1572 83C93.8505 83 92.6972 82.6267 91.6972 81.88C90.6972 81.12 90.1972 80.1333 90.1972 78.92ZM18.9388 106.26C18.9388 106.207 18.9521 106.14 18.9788 106.06L20.3388 102.46H19.5188C19.1588 102.46 18.9788 102.207 18.9788 101.7C18.9788 101.5 19.0254 101.333 19.1188 101.2C19.2121 101.053 19.3454 100.98 19.5188 100.98H20.8988L23.6788 93.7C23.7854 93.4867 23.9321 93.32 24.1188 93.2C24.3054 93.0667 24.4721 93 24.6188 93C24.7654 93 24.9321 93.0667 25.1188 93.2C25.3054 93.3333 25.4454 93.5 25.5388 93.7L28.3187 100.98H29.6188C29.7921 100.98 29.9254 101.053 30.0188 101.2C30.1254 101.347 30.1788 101.52 30.1788 101.72C30.1788 102.213 29.9921 102.46 29.6188 102.46H28.8988L30.2788 106.06C30.3054 106.14 30.3188 106.207 30.3188 106.26C30.3188 106.46 30.2188 106.633 30.0188 106.78C29.8188 106.927 29.6188 107 29.4188 107C29.2054 107 29.0454 106.9 28.9388 106.7L27.3188 102.46H21.9388L20.3188 106.7C20.2121 106.9 20.0521 107 19.8388 107C19.6387 107 19.4388 106.927 19.2388 106.78C19.0388 106.633 18.9388 106.46 18.9388 106.26ZM22.4988 100.98H26.7388L24.6188 95.4L22.4988 100.98ZM32.1922 106.48V97.54C32.1922 97.3667 32.2589 97.2333 32.3922 97.14C32.5389 97.0467 32.7122 97 32.9122 97C33.4189 97 33.6722 97.18 33.6722 97.54V99.12C34.3389 98.4 35.1455 97.8333 36.0922 97.42C37.0389 96.9933 37.9989 96.78 38.9722 96.78C40.2255 96.78 41.2722 97.1733 42.1122 97.96C42.9655 98.7333 43.3922 99.7467 43.3922 101C43.3922 101.12 43.3855 101.733 43.3722 102.84C43.3722 103.933 43.3722 105.133 43.3722 106.44C43.3722 106.613 43.2989 106.753 43.1522 106.86C43.0055 106.953 42.8322 107 42.6322 107C42.1389 107 41.8922 106.813 41.8922 106.44V101.18C41.8922 100.233 41.5522 99.5067 40.8722 99C40.2055 98.4933 39.5122 98.24 38.7922 98.24C37.8189 98.24 36.8189 98.5667 35.7922 99.22C34.7789 99.86 34.0722 100.673 33.6722 101.66V106.48C33.6722 106.84 33.4189 107.02 32.9122 107.02C32.7122 107.02 32.5389 106.973 32.3922 106.88C32.2589 106.787 32.1922 106.653 32.1922 106.48ZM45.2092 103.36C45.2092 101.573 45.9092 100.033 47.3092 98.74C48.7092 97.4467 50.2959 96.8 52.0692 96.8C53.1759 96.8 54.1426 97.1933 54.9692 97.98V92.52C54.9692 92.1733 55.2092 92 55.6892 92C56.1959 92 56.4492 92.1733 56.4492 92.52V106.44C56.4492 106.813 56.2026 107 55.7092 107C55.5092 107 55.3359 106.953 55.1892 106.86C55.0426 106.753 54.9692 106.613 54.9692 106.44V103.18C53.8892 104.58 52.8559 105.593 51.8692 106.22C50.8959 106.847 49.8892 107.16 48.8492 107.16C47.8892 107.16 47.0426 106.773 46.3092 106C45.5759 105.213 45.2092 104.333 45.2092 103.36ZM46.6492 103.4C46.6492 104.16 46.9159 104.74 47.4492 105.14C47.9826 105.527 48.5492 105.72 49.1492 105.72C49.8426 105.72 50.6359 105.38 51.5292 104.7C52.4226 104.007 53.1626 103.24 53.7492 102.4C54.3492 101.547 54.6492 100.88 54.6492 100.4C54.6492 100 54.5292 99.6467 54.2892 99.34C54.0626 99.02 53.7759 98.7867 53.4292 98.64C53.0959 98.4933 52.7892 98.3867 52.5092 98.32C52.2292 98.24 51.9959 98.2 51.8092 98.2C50.5026 98.2 49.3159 98.7267 48.2492 99.78C47.1826 100.82 46.6492 102.027 46.6492 103.4ZM67.5008 93.72C67.5008 93.52 67.5474 93.3533 67.6408 93.22C67.7341 93.0733 67.8674 93 68.0408 93H77.9208C78.0941 93 78.2274 93.0733 78.3208 93.22C78.4274 93.3667 78.4808 93.54 78.4808 93.74C78.4808 94.2333 78.2941 94.48 77.9208 94.48H73.6008V106.44C73.6008 106.613 73.5274 106.753 73.3808 106.86C73.2341 106.953 73.0608 107 72.8608 107C72.3674 107 72.1208 106.813 72.1208 106.44V94.48H68.0408C67.6808 94.48 67.5008 94.2267 67.5008 93.72ZM77.8069 101.72C77.8069 100.867 77.9935 100.107 78.3669 99.44C78.7402 98.7733 79.2335 98.2467 79.8469 97.86C80.4602 97.4733 81.1202 97.1867 81.8269 97C82.5335 96.8 83.2535 96.7 83.9869 96.7C85.2935 96.7 86.3069 96.9867 87.0269 97.56C87.7469 98.12 88.1069 98.8133 88.1069 99.64C88.1069 100.533 87.6869 101.293 86.8469 101.92C86.0069 102.547 84.8135 102.86 83.2669 102.86C81.8802 102.86 80.5602 102.66 79.3069 102.26C79.4535 103.247 79.9135 104.073 80.6869 104.74C81.4602 105.407 82.4135 105.74 83.5469 105.74C84.1469 105.74 84.7669 105.647 85.4069 105.46C86.0602 105.273 86.5735 105.007 86.9469 104.66C87.0002 104.553 87.1069 104.5 87.2669 104.5C87.4535 104.5 87.6535 104.587 87.8669 104.76C88.0802 104.92 88.1869 105.087 88.1869 105.26C87.8535 105.94 87.2002 106.44 86.2269 106.76C85.2669 107.067 84.3335 107.22 83.4269 107.22C81.7869 107.22 80.4402 106.68 79.3869 105.6C78.3335 104.52 77.8069 103.227 77.8069 101.72ZM79.3869 100.72C80.3869 101.16 81.6269 101.38 83.1069 101.38C84.2669 101.38 85.1469 101.2 85.7469 100.84C86.3469 100.467 86.6469 100.053 86.6469 99.6C86.6469 99.2 86.3935 98.8667 85.8869 98.6C85.3935 98.32 84.6535 98.18 83.6669 98.18C82.6002 98.18 81.7069 98.42 80.9869 98.9C80.2802 99.3667 79.7469 99.9733 79.3869 100.72ZM89.4409 106.3C89.4409 106.207 89.4809 106.12 89.5609 106.04L94.0009 102.06L89.5609 98.06C89.5076 98.02 89.4809 97.9333 89.4809 97.8C89.4809 97.6133 89.5876 97.4333 89.8009 97.26C90.0143 97.0867 90.2209 97 90.4209 97C90.5143 97 90.6543 97.08 90.8409 97.24L95.0809 101.08L99.3409 97.24C99.5276 97.08 99.6676 97 99.7609 97C99.9609 97 100.168 97.08 100.381 97.24C100.594 97.4 100.701 97.5867 100.701 97.8C100.701 97.9333 100.674 98.02 100.621 98.06L96.1809 102.06L100.621 106.04C100.701 106.12 100.741 106.207 100.741 106.3C100.741 106.473 100.634 106.647 100.421 106.82C100.208 106.98 100.014 107.06 99.8409 107.06C99.6543 107.06 99.4876 106.987 99.3409 106.84L95.0809 103.04L90.8409 106.84C90.6809 106.987 90.5143 107.06 90.3409 107.06C90.1676 107.06 89.9743 106.98 89.7609 106.82C89.5476 106.647 89.4409 106.473 89.4409 106.3ZM101.767 97.74C101.767 97.54 101.813 97.3667 101.907 97.22C102.013 97.0733 102.153 97 102.327 97H103.007V94.54C103.007 94.3667 103.073 94.2333 103.207 94.14C103.353 94.0467 103.527 94 103.727 94C104.233 94 104.487 94.18 104.487 94.54V97H107.687C107.86 97 107.993 97.0733 108.087 97.22C108.18 97.3533 108.227 97.52 108.227 97.72C108.227 98.2267 108.047 98.48 107.687 98.48H104.487V103.26C104.487 104.753 105.053 105.5 106.187 105.5C106.667 105.5 107.08 105.367 107.427 105.1C107.787 104.833 107.967 104.367 107.967 103.7C107.967 103.513 108.04 103.36 108.187 103.24C108.347 103.12 108.533 103.06 108.747 103.06C108.947 103.06 109.113 103.12 109.247 103.24C109.38 103.347 109.447 103.507 109.447 103.72C109.433 104.773 109.113 105.58 108.487 106.14C107.873 106.7 107.107 106.98 106.187 106.98C104.067 106.98 103.007 105.56 103.007 102.72V98.48H102.327C101.953 98.48 101.767 98.2333 101.767 97.74Z" fill="black"/>
</svg>
